<svg width="940" height="244" viewBox="0 0 940 244" fill="none" xmlns="http://www.w3.org/2000/svg">
<rect width="244" height="244" rx="7" fill="#151515"/>
<path fill-rule="evenodd" clip-rule="evenodd" d="M57.0601 74.258C57.0601 70.4037 57.0601 68.4765 57.7983 66.9992C58.4759 65.6432 59.5753 64.5438 60.9313 63.8662C62.4086 63.128 64.3358 63.128 68.1901 63.128H162.539C166.393 63.128 168.321 63.128 169.798 63.8662C171.154 64.5438 172.253 65.6432 172.931 66.9992C173.669 68.4765 173.669 70.4037 173.669 74.258V185.916C173.669 189.771 173.669 191.698 172.931 193.175C172.253 194.531 171.154 195.63 169.798 196.308C168.321 197.046 166.393 197.046 162.539 197.046H68.1901C64.3358 197.046 62.4086 197.046 60.9313 196.308C59.5753 195.63 58.4759 194.531 57.7983 193.175C57.0601 191.698 57.0601 189.771 57.0601 185.916V74.258ZM61.6151 78.8131C61.6151 74.9587 61.6151 73.0316 62.3533 71.5542C63.0309 70.1982 64.1303 69.0988 65.4863 68.4212C66.9636 67.6831 68.8908 67.6831 72.7451 67.6831H157.984C161.838 67.6831 163.766 67.6831 165.243 68.4212C166.599 69.0988 167.698 70.1982 168.376 71.5542C169.114 73.0316 169.114 74.9587 169.114 78.8131V96.6374C169.114 100.492 169.114 102.419 168.376 103.896C167.698 105.252 166.599 106.352 165.243 107.029C163.766 107.767 161.838 107.767 157.984 107.767H72.7451C68.8908 107.767 66.9636 107.767 65.4863 107.029C64.1303 106.352 63.0309 105.252 62.3533 103.896C61.6151 102.419 61.6151 100.492 61.6151 96.6374V78.8131ZM62.3533 118.016C61.6151 119.493 61.6151 121.42 61.6151 125.274V142.188C61.6151 146.042 61.6151 147.969 62.3533 149.447C63.0309 150.803 64.1303 151.902 65.4863 152.58C66.9636 153.318 68.8908 153.318 72.7451 153.318H106.057C109.911 153.318 111.838 153.318 113.315 152.58C114.671 151.902 115.771 150.803 116.448 149.447C117.187 147.969 117.187 146.042 117.187 142.188V125.274C117.187 121.42 117.187 119.493 116.448 118.016C115.771 116.66 114.671 115.56 113.315 114.883C111.838 114.144 109.911 114.144 106.057 114.144H72.7451C68.8908 114.144 66.9636 114.144 65.4863 114.883C64.1303 115.56 63.0309 116.66 62.3533 118.016Z" fill="#1C65D3"/>
<line x1="122.242" y1="119.111" x2="161.326" y2="119.111" stroke="black" stroke-linecap="round"/>
<line x1="122.242" y1="129.132" x2="161.326" y2="129.132" stroke="black" stroke-linecap="round"/>
<line x1="122.242" y1="138.242" x2="161.326" y2="138.242" stroke="black" stroke-linecap="round"/>
<line x1="122.242" y1="149.174" x2="161.326" y2="149.174" stroke="black" stroke-linecap="round"/>
<line x1="65.7592" y1="163.75" x2="161.326" y2="163.75" stroke="black" stroke-linecap="round"/>
<line x1="65.7592" y1="172.86" x2="161.326" y2="172.86" stroke="black" stroke-linecap="round"/>
<line x1="65.7592" y1="182.881" x2="161.326" y2="182.881" stroke="black" stroke-linecap="round"/>
<path d="M365.05 173H354.55L296.5 84.8V173H286V68.15H296.5L354.55 156.2V68.15H365.05V173ZM462.932 127.85C462.932 131.45 462.832 134.2 462.632 136.1H394.682C394.982 142.3 396.482 147.6 399.182 152C401.882 156.4 405.432 159.75 409.832 162.05C414.232 164.25 419.032 165.35 424.232 165.35C431.032 165.35 436.732 163.7 441.332 160.4C446.032 157.1 449.132 152.65 450.632 147.05H461.732C459.732 155.05 455.432 161.6 448.832 166.7C442.332 171.7 434.132 174.2 424.232 174.2C416.532 174.2 409.632 172.5 403.532 169.1C397.432 165.6 392.632 160.7 389.132 154.4C385.732 148 384.032 140.55 384.032 132.05C384.032 123.55 385.732 116.1 389.132 109.7C392.532 103.3 397.282 98.4 403.382 95C409.482 91.6 416.432 89.9 424.232 89.9C432.032 89.9 438.832 91.6 444.632 95C450.532 98.4 455.032 103 458.132 108.8C461.332 114.5 462.932 120.85 462.932 127.85ZM452.282 127.55C452.382 121.45 451.132 116.25 448.532 111.95C446.032 107.65 442.582 104.4 438.182 102.2C433.782 100 428.982 98.9 423.782 98.9C415.982 98.9 409.332 101.4 403.832 106.4C398.332 111.4 395.282 118.45 394.682 127.55H452.282ZM590.143 91.1L564.493 173H553.993L531.343 104.3L508.693 173H498.043L472.393 91.1H483.043L503.443 162.35L526.393 91.1H536.893L559.543 162.5L579.793 91.1H590.143ZM632.657 174.2C623.257 174.2 615.557 172.05 609.557 167.75C603.657 163.35 600.357 157.4 599.657 149.9H610.457C610.957 154.5 613.107 158.25 616.907 161.15C620.807 163.95 626.007 165.35 632.507 165.35C638.207 165.35 642.657 164 645.857 161.3C649.157 158.6 650.807 155.25 650.807 151.25C650.807 148.45 649.907 146.15 648.107 144.35C646.307 142.55 644.007 141.15 641.207 140.15C638.507 139.05 634.807 137.9 630.107 136.7C624.007 135.1 619.057 133.5 615.257 131.9C611.457 130.3 608.207 127.95 605.507 124.85C602.907 121.65 601.607 117.4 601.607 112.1C601.607 108.1 602.807 104.4 605.207 101C607.607 97.6 611.007 94.9 615.407 92.9C619.807 90.9 624.807 89.9 630.407 89.9C639.207 89.9 646.307 92.15 651.707 96.65C657.107 101.05 660.007 107.15 660.407 114.95H649.907C649.607 110.15 647.707 106.3 644.207 103.4C640.807 100.4 636.107 98.9 630.107 98.9C624.807 98.9 620.507 100.15 617.207 102.65C613.907 105.15 612.257 108.25 612.257 111.95C612.257 115.15 613.207 117.8 615.107 119.9C617.107 121.9 619.557 123.5 622.457 124.7C625.357 125.8 629.257 127.05 634.157 128.45C640.057 130.05 644.757 131.6 648.257 133.1C651.757 134.6 654.757 136.8 657.257 139.7C659.757 142.6 661.057 146.45 661.157 151.25C661.157 155.65 659.957 159.6 657.557 163.1C655.157 166.5 651.807 169.2 647.507 171.2C643.207 173.2 638.257 174.2 632.657 174.2Z" fill="black"/>
<path d="M773.55 155.05H731.85L724.95 175H702.9L740.55 70.15H765L802.65 175H780.45L773.55 155.05ZM767.85 138.25L752.7 94.45L737.55 138.25H767.85ZM893.073 102.7C893.073 108.3 891.723 113.55 889.023 118.45C886.423 123.35 882.273 127.3 876.573 130.3C870.973 133.3 863.873 134.8 855.273 134.8H837.723V175H816.723V70.3H855.273C863.373 70.3 870.273 71.7 875.973 74.5C881.673 77.3 885.923 81.15 888.723 86.05C891.623 90.95 893.073 96.5 893.073 102.7ZM854.373 117.85C860.173 117.85 864.473 116.55 867.273 113.95C870.073 111.25 871.473 107.5 871.473 102.7C871.473 92.5 865.773 87.4 854.373 87.4H837.723V117.85H854.373ZM928.983 70.3V175H907.983V70.3H928.983Z" fill="#1C65D3"/>
</svg>
